<?xml version="1.0" encoding="utf-8"?>
<!-- Generator: Adobe Illustrator 16.0.0, SVG Export Plug-In . SVG Version: 6.00 Build 0)  -->
<!DOCTYPE svg PUBLIC "-//W3C//DTD SVG 1.1//EN" "http://www.w3.org/Graphics/SVG/1.1/DTD/svg11.dtd">
<svg version="1.1" id="Layer_1" xmlns="http://www.w3.org/2000/svg" xmlns:xlink="http://www.w3.org/1999/xlink" x="0px" y="0px"
	 width="24px" height="24px" viewBox="0 0 24 24" enable-background="new 0 0 24 24" xml:space="preserve">
<g>
	<path fill="#D5DDDF" d="M10.877,17.928l-1.655-1.654l5.695-5.695c2.068,1.115,4.692,0.823,6.441-0.923
		c2.13-2.133,2.13-5.591,0-7.721c-2.133-2.133-5.592-2.133-7.725,0c-1.746,1.747-2.037,4.373-0.923,6.439L1.5,19.586
		c-0.607,0.606-0.607,1.6,0,2.206c0.606,0.605,1.6,0.605,2.207,0l1.654,1.655c0.305,0.304,0.798,0.304,1.104,0l1.103-1.104
		c0.305-0.305,0.305-0.799,0-1.104l-1.654-1.654l1.103-1.106l1.656,1.657c0.305,0.305,0.798,0.305,1.103,0l1.103-1.102
		C11.182,18.727,11.182,18.236,10.877,17.928z M15.84,4.14c0.914-0.914,2.398-0.914,3.313,0c0.911,0.911,0.911,2.398,0,3.31
		c-0.914,0.911-2.398,0.911-3.313,0C14.929,6.538,14.929,5.051,15.84,4.14z"/>
</g>
</svg>
