<?xml version="1.0" encoding="utf-8"?>
<!-- Generator: Adobe Illustrator 16.0.0, SVG Export Plug-In . SVG Version: 6.00 Build 0)  -->
<!DOCTYPE svg PUBLIC "-//W3C//DTD SVG 1.1//EN" "http://www.w3.org/Graphics/SVG/1.1/DTD/svg11.dtd">
<svg version="1.1" id="Layer_1" xmlns="http://www.w3.org/2000/svg" xmlns:xlink="http://www.w3.org/1999/xlink" x="0px" y="0px"
	 width="24px" height="24px" viewBox="244 244 24 24" enable-background="new 244 244 24 24" xml:space="preserve">
<g>
	<g>
		<path fill="#D5DDDF" stroke="#D5DDDF" stroke-miterlimit="10" d="M264.51,266.613l-3.01-6.367
			c-0.061-0.127-0.164-0.226-0.289-0.277l-1.498-0.668l2.595-4.348c0.007-0.01,0.013-0.021,0.018-0.032
			c0.516-1.007,0.778-2.095,0.778-3.234c0-1.916-0.752-3.712-2.116-5.057c-1.364-1.346-3.171-2.072-5.088-2.045
			c-1.862,0.026-3.615,0.774-4.936,2.106c-1.322,1.332-2.055,3.091-2.066,4.953c-0.007,1.138,0.262,2.271,0.777,3.277
			c0.006,0.011,0.012,0.021,0.018,0.032l2.595,4.348l-1.506,0.671c-0.124,0.055-0.223,0.151-0.28,0.274l-3.01,6.367
			c-0.101,0.213-0.058,0.467,0.106,0.635c0.165,0.169,0.417,0.217,0.632,0.121L252,265.69l3.771,1.679
			c0.146,0.064,0.313,0.064,0.458,0L260,265.69l3.771,1.679c0.074,0.032,0.151,0.049,0.229,0.049c0.147,0,0.294-0.059,0.403-0.17
			C264.568,267.079,264.61,266.825,264.51,266.613z M250.669,254.39c-0.434-0.853-0.651-1.775-0.646-2.741
			c0.019-3.23,2.662-5.895,5.891-5.939c1.613-0.021,3.134,0.589,4.281,1.721c1.148,1.132,1.779,2.643,1.779,4.255
			c0,0.953-0.216,1.862-0.646,2.705l-4.847,8.124c-0.147,0.248-0.387,0.274-0.483,0.274s-0.336-0.026-0.484-0.274L250.669,254.39z
			 M260.229,264.558c-0.146-0.064-0.313-0.064-0.458,0L256,266.237l-3.771-1.679c-0.146-0.064-0.313-0.064-0.458,0l-2.613,1.163
			l2.272-4.806l1.438-0.64l1.68,2.815c0.308,0.516,0.851,0.824,1.452,0.824c0.602,0,1.144-0.309,1.451-0.824l1.681-2.815l1.438,0.64
			l2.271,4.807L260.229,264.558z"/>
	</g>
</g>
<g>
	<g>
		<path fill="#D5DDDF" stroke="#D5DDDF" stroke-width="0.5" stroke-miterlimit="10" d="M256,249.115
			c-1.418,0-2.571,1.153-2.571,2.571s1.153,2.572,2.571,2.572s2.571-1.154,2.571-2.572S257.418,249.115,256,249.115z M256,253.13
			c-0.796,0-1.444-0.648-1.444-1.444s0.648-1.445,1.444-1.445c0.797,0,1.445,0.648,1.445,1.445S256.797,253.13,256,253.13z"/>
	</g>
</g>
</svg>
