<?xml version="1.0" encoding="utf-8"?>
<!-- Generator: Adobe Illustrator 16.0.0, SVG Export Plug-In . SVG Version: 6.00 Build 0)  -->
<!DOCTYPE svg PUBLIC "-//W3C//DTD SVG 1.1//EN" "http://www.w3.org/Graphics/SVG/1.1/DTD/svg11.dtd">
<svg version="1.1" id="Capa_1" xmlns="http://www.w3.org/2000/svg" xmlns:xlink="http://www.w3.org/1999/xlink" x="0px" y="0px"
	 width="24px" height="24px" viewBox="244 244 24 24" enable-background="new 244 244 24 24" xml:space="preserve">
<g>
	<g>
		<path fill="#D5DDDF" stroke="#D5DDDF" stroke-miterlimit="10" d="M262.602,258.717c-0.466-0.484-1.027-0.744-1.622-0.744
			c-0.592,0-1.157,0.254-1.642,0.738l-1.517,1.512c-0.125-0.066-0.249-0.128-0.37-0.191c-0.172-0.086-0.335-0.168-0.475-0.254
			c-1.421-0.903-2.711-2.079-3.949-3.6c-0.6-0.758-1.003-1.396-1.296-2.044c0.394-0.36,0.758-0.734,1.114-1.094
			c0.134-0.134,0.268-0.273,0.403-0.408c1.008-1.008,1.008-2.313,0-3.321L251.938,248c-0.148-0.148-0.302-0.302-0.446-0.456
			c-0.288-0.297-0.59-0.605-0.903-0.893c-0.465-0.46-1.021-0.705-1.607-0.705c-0.585,0-1.152,0.245-1.631,0.705
			c-0.005,0.005-0.005,0.005-0.01,0.01l-1.631,1.646c-0.614,0.615-0.964,1.363-1.041,2.231c-0.116,1.402,0.297,2.707,0.614,3.561
			c0.777,2.098,1.939,4.04,3.672,6.123c2.102,2.511,4.631,4.493,7.52,5.889c1.103,0.523,2.577,1.143,4.223,1.248
			c0.101,0.006,0.205,0.01,0.302,0.01c1.109,0,2.039-0.398,2.77-1.19c0.004-0.009,0.015-0.015,0.019-0.023
			c0.25-0.302,0.537-0.576,0.841-0.87c0.206-0.194,0.417-0.402,0.623-0.618c0.475-0.495,0.725-1.069,0.725-1.66
			c0-0.596-0.254-1.166-0.739-1.646L262.602,258.717z M264.319,263.77C264.315,263.77,264.315,263.774,264.319,263.77
			c-0.188,0.201-0.379,0.385-0.586,0.586c-0.312,0.298-0.628,0.609-0.926,0.96c-0.484,0.519-1.056,0.763-1.805,0.763
			c-0.071,0-0.147,0-0.221-0.005c-1.425-0.092-2.75-0.648-3.743-1.123c-2.716-1.315-5.102-3.181-7.083-5.548
			c-1.637-1.972-2.73-3.796-3.456-5.753c-0.446-1.195-0.609-2.126-0.538-3.004c0.048-0.562,0.264-1.027,0.662-1.425l1.637-1.636
			c0.235-0.221,0.485-0.341,0.729-0.341c0.302,0,0.547,0.183,0.701,0.335c0.005,0.005,0.009,0.01,0.015,0.015
			c0.292,0.274,0.571,0.557,0.864,0.859c0.148,0.154,0.302,0.307,0.455,0.466l1.311,1.309c0.509,0.509,0.509,0.979,0,1.489
			c-0.139,0.138-0.274,0.277-0.413,0.412c-0.403,0.413-0.787,0.796-1.205,1.171c-0.009,0.01-0.019,0.014-0.024,0.023
			c-0.413,0.413-0.336,0.816-0.25,1.089c0.004,0.014,0.01,0.029,0.015,0.043c0.34,0.825,0.82,1.603,1.55,2.528l0.005,0.006
			c1.324,1.632,2.721,2.904,4.261,3.877c0.197,0.126,0.398,0.227,0.591,0.322c0.172,0.086,0.334,0.168,0.475,0.254
			c0.019,0.009,0.038,0.024,0.057,0.033c0.163,0.082,0.317,0.12,0.476,0.12c0.398,0,0.648-0.25,0.73-0.332l1.641-1.641
			c0.163-0.162,0.422-0.359,0.725-0.359c0.298,0,0.542,0.187,0.69,0.35c0.006,0.006,0.006,0.006,0.011,0.01l2.645,2.646
			C264.809,262.757,264.809,263.262,264.319,263.77z"/>
		<path fill="#D5DDDF" stroke="#D5DDDF" stroke-width="0.5" stroke-miterlimit="10" d="M256.919,250.04
			c1.257,0.211,2.4,0.807,3.313,1.718c0.911,0.912,1.501,2.054,1.717,3.311c0.052,0.317,0.326,0.538,0.639,0.538
			c0.038,0,0.071-0.004,0.109-0.009c0.356-0.058,0.591-0.394,0.534-0.75c-0.26-1.521-0.979-2.908-2.079-4.007
			c-1.098-1.099-2.484-1.819-4.006-2.078c-0.355-0.058-0.687,0.178-0.749,0.528C256.334,249.642,256.563,249.982,256.919,250.04z"/>
		<path fill="#D5DDDF" stroke="#D5DDDF" stroke-width="0.5" stroke-miterlimit="10" d="M267.343,254.662
			c-0.427-2.505-1.608-4.785-3.422-6.599c-1.813-1.814-4.094-2.995-6.599-3.422c-0.35-0.062-0.681,0.178-0.744,0.528
			c-0.058,0.355,0.179,0.687,0.533,0.749c2.236,0.379,4.276,1.44,5.897,3.057c1.622,1.623,2.679,3.662,3.058,5.898
			c0.053,0.317,0.326,0.538,0.639,0.538c0.038,0,0.071-0.005,0.11-0.01C267.166,255.347,267.405,255.012,267.343,254.662z"/>
	</g>
</g>
</svg>
