<?xml version="1.0" encoding="utf-8"?>
<!-- Generator: Adobe Illustrator 16.0.0, SVG Export Plug-In . SVG Version: 6.00 Build 0)  -->
<!DOCTYPE svg PUBLIC "-//W3C//DTD SVG 1.1//EN" "http://www.w3.org/Graphics/SVG/1.1/DTD/svg11.dtd">
<svg version="1.1" id="Layer_1" xmlns="http://www.w3.org/2000/svg" xmlns:xlink="http://www.w3.org/1999/xlink" x="0px" y="0px"
	 width="35.857px" height="24px" viewBox="0 0 35.857 24" enable-background="new 0 0 35.857 24" xml:space="preserve">
<path fill="#D5DDDF" stroke="#D5DDDF" stroke-miterlimit="10" d="M0.605,22.127V6.266c0-1.131,0.561-1.696,1.684-1.696h0.78
	c0.393,0,0.67-0.062,0.835-0.185c0.164-0.123,0.292-0.363,0.383-0.719l0.137-0.547c0.146-0.575,0.333-0.926,0.561-1.054
	c0.219-0.128,0.748-0.191,1.587-0.191H11.8c0.756,0,1.241,0.06,1.451,0.178c0.209,0.119,0.392,0.438,0.547,0.958l0.151,0.507
	c0.154,0.52,0.298,0.825,0.431,0.917c0.132,0.091,0.5,0.137,1.101,0.137h9.458c0.647,0,1.088,0.121,1.32,0.362
	c0.232,0.242,0.349,0.696,0.349,1.362v1.314h5.434c0.985,0,1.492,0.173,1.519,0.52c0.01,0.073-0.15,0.442-0.479,1.108l-6.473,12.891
	H0.605z M1.276,20.731L7.161,9.263C7.59,8.433,7.922,7.949,8.16,7.813c0.238-0.137,0.853-0.205,1.848-0.205h15.93V6.293
	c0-0.703-0.342-1.054-1.026-1.054h-9.512c-0.857,0-1.387-0.05-1.587-0.151c-0.201-0.1-0.365-0.41-0.493-0.93l-0.164-0.63
	c-0.119-0.447-0.253-0.723-0.404-0.828c-0.149-0.105-0.485-0.157-1.005-0.157H6.682c-0.583,0-0.976,0.055-1.177,0.165
	C5.304,2.827,5.149,3.082,5.04,3.474l-0.165,0.63C4.729,4.624,4.567,4.943,4.39,5.062C4.212,5.18,3.817,5.24,3.206,5.24H2.357
	c-0.438,0-0.728,0.066-0.87,0.198C1.347,5.57,1.276,5.851,1.276,6.28V20.731z M1.687,21.458h24.482l6.063-12.154
	c0.201-0.438,0.301-0.685,0.301-0.739c-0.026-0.191-0.31-0.288-0.848-0.288H9.597c-0.529,0-0.895,0.06-1.095,0.179
	C8.301,8.574,8.096,8.844,7.886,9.263L1.687,21.458z"/>
</svg>
