<?xml version="1.0" encoding="utf-8"?>
<!-- Generator: Adobe Illustrator 16.0.0, SVG Export Plug-In . SVG Version: 6.00 Build 0)  -->
<!DOCTYPE svg PUBLIC "-//W3C//DTD SVG 1.1//EN" "http://www.w3.org/Graphics/SVG/1.1/DTD/svg11.dtd">
<svg version="1.1" id="Layer_1" xmlns="http://www.w3.org/2000/svg" xmlns:xlink="http://www.w3.org/1999/xlink" x="0px" y="0px"
	 width="12px" height="24px" viewBox="0 0 12 24" enable-background="new 0 0 12 24" xml:space="preserve">
<g>
	<path fill="#D5DDDF" d="M5.014,23.944v-2.926c-1.681-0.029-3.421-0.552-4.437-1.277l0.696-1.94
		c1.044,0.693,2.553,1.245,4.177,1.245c2.056,0,3.449-1.19,3.449-2.841c0-1.596-1.131-2.581-3.276-3.45
		C2.667,11.593,0.84,10.26,0.84,7.737c0-2.406,1.709-4.233,4.377-4.668V0.14h1.799v2.814c1.741,0.057,2.927,0.522,3.768,1.013
		L10.06,5.882c-0.61-0.347-1.797-0.987-3.653-0.987c-2.234,0-3.074,1.334-3.074,2.496c0,1.506,1.072,2.262,3.596,3.305
		c2.986,1.217,4.493,2.725,4.493,5.306c0,2.29-1.594,4.436-4.581,4.931v3.013H5.014z"/>
</g>
</svg>
